PathFileType	4	(X/Y/Z)	6_coords_data.trc
DataRate	CameraRate	NumFrames	NumMarkers	Units	OrigDataRate	OrigDataStartFrame	OrigNumFrames
30.0	30.0	9	21	m	30.0	19	66
Frame#	Time	THUMB_TIP	THUMB_IP	THUMB_MCP	THUMB_CMC	INDEX_TIP	INDEX_DIP	INDEX_PIP	INDEX_MCP	MIDDLE_TIP	MIDDLE_DIP	MIDDLE_PIP	MIDDLE_MCP	RING_TIP	RING_DIP	RING_PIP	RING_MCP	PINKY_TIP	PINKY_DIP	PINKY_PIP	PINKY_MCP	WRIST
X1	Y1	Z1	X2	Y2	Z2	X3	Y3	Z3	X4	Y4	Z4	X5	Y5	Z5	X6	Y6	Z6	X7	Y7	Z7	X8	Y8	Z8	X9	Y9	Z9	X10	Y10	Z10	X11	Y11	Z11	X12	Y12	Z12	X13	Y13	Z13	X14	Y14	Z14	X15	Y15	Z15	X16	Y16	Z16	X17	Y17	Z17	X18	Y18	Z18	X19	Y19	Z19	X20	Y20	Z20	X21	Y21	Z21
17	0.5999999999999973	0.5354214131466056	-0.007727959602661039	-0.09883620851125414	0.5193566196536871	-0.005413813493587161	-0.11510172841735436	0.488601129960227	-0.009388334254830877	-0.11777063052007622	0.4770381845593864	-0.021805698025079145	-0.07651535969737401	0.4947966504083813	0.0009718159515644809	-0.10742978576588036	0.5107167741364445	0.0004657903328619817	-0.1160491592092566	0.5251029012996461	0.020280399962166573	-0.12174393080102897	0.49427296089643813	0.0393520856714219	-0.09939618655374449	0.49713672224934036	-0.015653920796574794	-0.1046871703782105	0.5127239800643033	-0.007229144879432048	-0.10093743111316826	0.5340829203703874	0.012438380428691498	-0.10346600131299741	0.5073297976417472	0.03909043684385416	-0.07958952263398561	0.5275330510035718	-0.0006512047793303388	-0.09639600189898957	0.516392145433424	-0.009052802378682778	-0.08498138929690766	0.5385235639200835	0.0018163594127275084	-0.08848019148058339	0.5215385597481641	0.029421677910693944	-0.06431044059428498	0.508816635119734	-0.018722363842034517	-0.06759674085827674	0.5223196165261101	-0.022455052171089118	-0.07743221395199214	0.5413070317057684	-0.013515757501887049	-0.07804792054807198	0.5288016006897611	0.00909940685072419	-0.05288739616148036	0.4622830810018609	-0.023011742144276925	-0.05198982011943099
18	0.6333333333333304	0.5355184464940561	-0.007474046522587763	-0.09887788098413144	0.5194075372179575	-0.0051813957554779355	-0.11510077698815593	0.4886539281891368	-0.009204320833921864	-0.11771833415384739	0.4770586772792077	-0.02170720644416846	-0.07649797501236404	0.4948848434439752	0.0011738360761139877	-0.10741544206560036	0.510803967267375	0.0006956375131522696	-0.1160382503569662	0.5251067550317327	0.0205773204140014	-0.12170912155968484	0.4942344177151261	0.03946939214469958	-0.0992675416613839	0.4971958511221922	-0.01552361261430435	-0.10448603192583758	0.512793853604218	-0.007028496080557223	-0.10094550743802883	0.5340870141028994	0.012717413088116136	-0.10341733612948417	0.5072593909812664	0.03920628232657897	-0.07944305063207585	0.5276120739929827	-0.0003892399223617282	-0.09634433851073533	0.5164669307854485	-0.008863916211788947	-0.08498803432878523	0.5385682530596033	0.002081334012169589	-0.0884395601173154	0.5214621200750649	0.029537177112760604	-0.06418512283357238	0.5089276240376657	-0.018589478832845008	-0.06768579412897167	0.522471893808904	-0.022238860256643567	-0.07749572642168148	0.5414189141645389	-0.013209898375444507	-0.07804370998988051	0.5287409322255063	0.009226844390777922	-0.052809907284066746	0.4622830810018609	-0.023011742144276925	-0.05198982011943098
19	0.6666666666666637	0.5356279388032096	-0.007239364933212866	-0.09893978474649731	0.5194735639365207	-0.004972126772605945	-0.11512297985097447	0.48872266564970235	-0.009058745934694357	-0.11767284227428372	0.4770782300238253	-0.02160898475427031	-0.0764807480749545	0.49498052182063734	0.0013105878673125293	-0.10740716532773342	0.5108991965378156	0.0009021776803616044	-0.11603438946808509	0.5251116617115016	0.020852821305719194	-0.1216901374841075	0.4942040353861714	0.039571885327664535	-0.09915236095056115	0.4972651952014311	-0.015321236040837016	-0.10436604844711748	0.5128842016066535	-0.006809206262439971	-0.10096134758429659	0.5341120034827849	0.013012178388261852	-0.10339089240517196	0.5071961985856314	0.03931164650285679	-0.07930717706414177	0.5276802953124825	-3.80631846416124e-05	-0.09627802900362324	0.5165617739705076	-0.008680420847045456	-0.08502244651300352	0.5386266649420931	0.002353523299706173	-0.08842430511947372	0.5213925752618134	0.029641627084077915	-0.06407135090965689	0.5089994932874086	-0.018447877203392804	-0.06776492054435111	0.5225741611888077	-0.02203018047680405	-0.07755754504568006	0.5414930735615977	-0.012939204523884307	-0.07804839110518459	0.5286839774188145	0.009345541886119912	-0.05274620573619426	0.4622830810018609	-0.023011742144276925	-0.05198982011943098
20	0.6999999999999968	0.5357323438023746	-0.007009880515453926	-0.09901851766299785	0.519531611142624	-0.004764921864879201	-0.11515841920992512	0.4887802602482165	-0.00890035463086536	-0.11762268664813688	0.47709621461144636	-0.021526453367961107	-0.07646500561240573	0.49508627762148094	0.0014727878829934316	-0.10740474342128392	0.5109971586450619	0.0011106512271289448	-0.116048395548477	0.5251227752717365	0.021127410933471036	-0.12168808692077568	0.4941767531183061	0.03966213430671406	-0.099050864556785	0.497368861823166	-0.015156686636546568	-0.10426701243937679	0.5130001843566936	-0.006612039800059866	-0.10100346126120524	0.534166153703167	0.013283574907060891	-0.10336477594797458	0.5071489005292822	0.039396232302364664	-0.07919154538824791	0.5277583591301004	0.00024844654964295554	-0.09620512145840934	0.5166392212759546	-0.008518874973087676	-0.08504721633703591	0.5386751833166835	0.0025834401742400592	-0.08841395872530554	0.5213350367171019	0.02972792589969031	-0.06397593416099481	0.5090898552307959	-0.018300073572145026	-0.0678554321570385	0.522689346610971	-0.021814182889754452	-0.07763831874047736	0.5415873401288926	-0.012676762297172184	-0.0780689054458571	0.5286371518316543	0.009442641618002567	-0.0526935622067317	0.4622830810018609	-0.023011742144276925	-0.051989820119430985
21	0.7333333333333302	0.535842950660338	-0.006813779339797321	-0.0990952608252292	0.5196008692878729	-0.0045846594592978684	-0.11519575203663585	0.48884798000016405	-0.008757055089029464	-0.11757712037583194	0.47710819844294816	-0.021438180657412875	-0.07645223030536796	0.49516973522652263	0.0016624430339661211	-0.10741638173987612	0.5110811232766123	0.001309519589168806	-0.1160594816098057	0.5251328304523193	0.021381297180682934	-0.12168825614472627	0.4941548436563926	0.039744816558528795	-0.09895542560977373	0.4974204643286738	-0.01488700841200774	-0.10428141948535234	0.513090790933694	-0.006418375724606906	-0.1010068012636536	0.5342089595825835	0.013531173609772407	-0.1033408930082593	0.5071052427662301	0.03947489815616678	-0.07908270650556001	0.5277664719952404	0.00047168008555431573	-0.09620524984305667	0.5166902653317583	-0.008348958019343322	-0.08504666617978351	0.5387121011525777	0.0027867143230160263	-0.0883956253560793	0.5212840485495318	0.029806248195864637	-0.0638817801709711	0.5091615328709392	-0.01816167012192571	-0.06792787045864723	0.5227877608432183	-0.021627390594035845	-0.07769079485949529	0.541664547835222	-0.012443847468281977	-0.07806691653653768	0.5285930001476724	0.009534050399375826	-0.05263091650958916	0.462283081001861	-0.023011742144276925	-0.051989820119430985
22	0.7666666666666633	0.5359122298484197	-0.006674237916835302	-0.09914819282007337	0.5196339174777962	-0.004448365146634825	-0.1152125022286749	0.4888812067335101	-0.008648208836521731	-0.11754747436101179	0.47710909093468135	-0.021381596610925535	-0.07644798378745801	0.4952375583060865	0.0017731719226788956	-0.10743918183011192	0.51114862570627	0.001468463950301535	-0.11608470594599915	0.5251402256309324	0.021584540712400124	-0.12170506360806448	0.49413486393906236	0.03980214810227367	-0.09889229478565394	0.497473646418539	-0.014751509960302056	-0.10428169461582813	0.5131387039674384	-0.006268620321341012	-0.10101878864677577	0.5342322071812254	0.013709317333032045	-0.10333302269888499	0.5070722561779941	0.03953102794304486	-0.07900763999532134	0.5277699802133359	0.0007226732364775668	-0.09613605384046522	0.5167185846777685	-0.008225689191959318	-0.0850548324923564	0.5387313415415969	0.002932013289781432	-0.08839012701952208	0.5212505494493593	0.029859222732975588	-0.0638123294487403	0.5092089937962371	-0.018069557229735467	-0.06797737712438409	0.5228656722872671	-0.021461868389488603	-0.07772352290556615	0.5417319909336444	-0.012255752042916623	-0.07807203624352557	0.5285616404953571	0.009598812783297994	-0.052580796246430576	0.4622830810018608	-0.023011742144276925	-0.051989820119430985
23	0.7999999999999965	0.5359314079126868	-0.006582486661732223	-0.09918400022042105	0.5196436789912484	-0.004341918319959892	-0.11523671775009764	0.48888910856834566	-0.008553461526182526	-0.11752566989569711	0.477095753204293	-0.02135839600393119	-0.07645450699180881	0.4952592641048157	0.0019265472207784518	-0.10748469452043835	0.5111703320352892	0.0015949513518285219	-0.11612922813952711	0.5251435596109301	0.021728915757850853	-0.12173121184321428	0.4941275998267518	0.0398392293496439	-0.0988475304463507	0.4975222930608424	-0.01470993188119496	-0.10442862880636695	0.5131368150205446	-0.006183644480955763	-0.10103906730987572	0.5342312182472421	0.01379455211208247	-0.10334283886960352	0.5070662003915362	0.03955615665198409	-0.07895945400554275	0.5278131789130791	0.0008618577462112809	-0.0960435985238762	0.5167162247656026	-0.008174410074486271	-0.08507986409981091	0.5387308881754491	0.002982742228290758	-0.08840439811885893	0.5212505270317257	0.029866692993841593	-0.06377898442648705	0.5092646868966632	-0.01800785442607289	-0.06802521014761659	0.522928807876006	-0.021366554897115364	-0.07777256512256743	0.541794181667013	-0.012157884882726844	-0.07810435917268538	0.5285614304945543	0.009599567548017496	-0.05256241306179374	0.4622830810018608	-0.023011742144276925	-0.05198982011943098
24	0.8333333333333297	0.5358662469654379	-0.006558214752481306	-0.09911883561882623	0.5196379898742026	-0.004261612218146804	-0.11522378170939304	0.4888795735427207	-0.008449278127183657	-0.1175048514175607	0.4770916754574682	-0.021326790207242596	-0.07645481924510515	0.4952169447826932	0.00201214116892634	-0.10748249947533843	0.5111261567693781	0.0016443816553877166	-0.11612898586594383	0.5251167690895221	0.021768264319911967	-0.12172380010878511	0.49412557482381847	0.0398736532147852	-0.09880269924188023	0.49751813000343215	-0.01460420633756676	-0.10460061986919196	0.5131168355810445	-0.006116852120965355	-0.1010446104899986	0.5342361840148366	0.013837862697738346	-0.10332321274495157	0.5070694721719293	0.039573332431565245	-0.07891413070109503	0.5278381848813539	0.0008280712142988422	-0.09602101524949165	0.5166756294509163	-0.008151969578678253	-0.08507769657466195	0.5387061192352888	0.002972427112349574	-0.08840715555793702	0.5212640644521266	0.029856899513308166	-0.06375516369798236	0.5091894118473564	-0.018055739581985142	-0.0680479731094845	0.5228852670444247	-0.021318860437008813	-0.07778324879671834	0.5417824967665767	-0.012176761929647006	-0.07814208400946632	0.5285788308664189	0.009564029099879967	-0.052570915416547945	0.462283081001861	-0.023011742144276925	-0.051989820119430985
25	0.8666666666666629	0.5358192073841747	-0.0065550776390261856	-0.0989122619904387	0.5196942914894062	-0.004215586409012206	-0.11511454171186451	0.4889386684289191	-0.008384425789149885	-0.11746665318538158	0.477093992700504	-0.021326952034437796	-0.07645342761997731	0.4950639545866946	0.0021577717691161347	-0.10747522408510324	0.5109718298894227	0.0016342936774496053	-0.11611614267286922	0.5250517714124258	0.021686482842830923	-0.12174417868773141	0.4941276251779184	0.039875536753016916	-0.09879877410382504	0.49751122534581815	-0.014711573732982375	-0.10498839943655458	0.5129655670680712	-0.0061343450662573185	-0.10103941598121594	0.5341750339564698	0.013724150755854425	-0.10332156584331988	0.5070915450189555	0.039554781484218204	-0.07892051946931282	0.52815082374553	0.0004051416015781184	-0.09584073715910593	0.5165412695333997	-0.008177668534908422	-0.08504473692028455	0.5386203179850267	0.002832976053852243	-0.08843019172144567	0.5213035115330608	0.02980587151272529	-0.06378649153519413	0.5090876349195327	-0.018069765079914313	-0.06798096637814192	0.5227546113264689	-0.021341868457660063	-0.07775373954534436	0.5417101416760738	-0.012325557715384794	-0.07820764346021833	0.5286225879184617	0.009473782128176289	-0.052626631556336526	0.462283081001861	-0.023011742144276925	-0.051989820119430985
